<?xml version="1.0" encoding="utf-8"?>
<svg xmlns="http://www.w3.org/2000/svg">
  <defs>
    <symbol id="instagram" viewBox="0 0 256 256">
      <title>Instagram</title> 
      <g fill="none"><rect width="256" height="256" fill="url(#SVGWRUqebek)" rx="60"/><rect width="256" height="256" fill="url(#SVGfkNpldMH)" rx="60"/><path fill="#fff" d="M128.009 28c-27.158 0-30.567.119-41.233.604c-10.646.488-17.913 2.173-24.271 4.646c-6.578 2.554-12.157 5.971-17.715 11.531c-5.563 5.559-8.98 11.138-11.542 17.713c-2.48 6.36-4.167 13.63-4.646 24.271c-.477 10.667-.602 14.077-.602 41.236s.12 30.557.604 41.223c.49 10.646 2.175 17.913 4.646 24.271c2.556 6.578 5.973 12.157 11.533 17.715c5.557 5.563 11.136 8.988 17.709 11.542c6.363 2.473 13.631 4.158 24.275 4.646c10.667.485 14.073.604 41.23.604c27.161 0 30.559-.119 41.225-.604c10.646-.488 17.921-2.173 24.284-4.646c6.575-2.554 12.146-5.979 17.702-11.542c5.563-5.558 8.979-11.137 11.542-17.712c2.458-6.361 4.146-13.63 4.646-24.272c.479-10.666.604-14.066.604-41.225s-.125-30.567-.604-41.234c-.5-10.646-2.188-17.912-4.646-24.27c-2.563-6.578-5.979-12.157-11.542-17.716c-5.562-5.562-11.125-8.979-17.708-11.53c-6.375-2.474-13.646-4.16-24.292-4.647c-10.667-.485-14.063-.604-41.23-.604zm-8.971 18.021c2.663-.004 5.634 0 8.971 0c26.701 0 29.865.096 40.409.575c9.75.446 15.042 2.075 18.567 3.444c4.667 1.812 7.994 3.979 11.492 7.48c3.5 3.5 5.666 6.833 7.483 11.5c1.369 3.52 3 8.812 3.444 18.562c.479 10.542.583 13.708.583 40.396s-.104 29.855-.583 40.396c-.446 9.75-2.075 15.042-3.444 18.563c-1.812 4.667-3.983 7.99-7.483 11.488c-3.5 3.5-6.823 5.666-11.492 7.479c-3.521 1.375-8.817 3-18.567 3.446c-10.542.479-13.708.583-40.409.583c-26.702 0-29.867-.104-40.408-.583c-9.75-.45-15.042-2.079-18.57-3.448c-4.666-1.813-8-3.979-11.5-7.479s-5.666-6.825-7.483-11.494c-1.369-3.521-3-8.813-3.444-18.563c-.479-10.542-.575-13.708-.575-40.413s.096-29.854.575-40.396c.446-9.75 2.075-15.042 3.444-18.567c1.813-4.667 3.983-8 7.484-11.5s6.833-5.667 11.5-7.483c3.525-1.375 8.819-3 18.569-3.448c9.225-.417 12.8-.542 31.437-.563zm62.351 16.604c-6.625 0-12 5.37-12 11.996c0 6.625 5.375 12 12 12s12-5.375 12-12s-5.375-12-12-12zm-53.38 14.021c-28.36 0-51.354 22.994-51.354 51.355s22.994 51.344 51.354 51.344c28.361 0 51.347-22.983 51.347-51.344c0-28.36-22.988-51.355-51.349-51.355zm0 18.021c18.409 0 33.334 14.923 33.334 33.334c0 18.409-14.925 33.334-33.334 33.334s-33.333-14.925-33.333-33.334c0-18.411 14.923-33.334 33.333-33.334"/><defs><radialGradient id="SVGWRUqebek" cx="0" cy="0" r="1" gradientTransform="matrix(0 -253.715 235.975 0 68 275.717)" gradientUnits="userSpaceOnUse"><stop stop-color="#fd5"/><stop offset=".1" stop-color="#fd5"/><stop offset=".5" stop-color="#ff543e"/><stop offset="1" stop-color="#c837ab"/></radialGradient><radialGradient id="SVGfkNpldMH" cx="0" cy="0" r="1" gradientTransform="matrix(22.25952 111.2061 -458.39518 91.75449 -42.881 18.441)" gradientUnits="userSpaceOnUse"><stop stop-color="#3771c8"/><stop offset=".128" stop-color="#3771c8"/><stop offset="1" stop-color="#60f" stop-opacity="0"/></radialGradient></defs></g>
    </symbol>
    <symbol id="mastodon" viewBox="0 0 256 256">
      <g fill="none">
        <rect width="256" height="256" fill="#242938" rx="60" />
        <path fill="#2b90d9" d="M218.324 148.035c-2.768 14.007-24.795 29.336-50.093 32.306c-13.192 1.548-26.181 2.971-40.031 2.346c-22.65-1.02-40.522-5.316-40.522-5.316c0 2.168.136 4.233.407 6.164c2.945 21.983 22.166 23.3 40.372 23.914c18.376.618 34.739-4.456 34.739-4.456l.755 16.338s-12.853 6.788-35.751 8.036c-12.626.682-28.303-.312-46.563-5.065c-39.603-10.309-46.413-51.824-47.455-93.948c-.318-12.507-.122-24.3-.122-34.164c0-43.073 28.697-55.699 28.697-55.699c14.47-6.535 39.299-9.283 65.112-9.491h.634c25.812.207 50.658 2.956 65.127 9.491c0 0 28.696 12.626 28.696 55.7c0 0 .36 31.78-4.002 53.844" />
        <path fill="#fff" d="M188.477 97.532v52.155h-21.011V99.065c0-10.671-4.566-16.087-13.698-16.087c-10.097 0-15.157 6.425-15.157 19.13v27.708h-20.887v-27.708c0-12.705-5.062-19.13-15.159-19.13c-9.132 0-13.697 5.416-13.697 16.087v50.622H67.857V97.532c0-10.66 2.76-19.13 8.303-25.397c5.716-6.266 13.203-9.479 22.496-9.479c10.752 0 18.894 4.064 24.277 12.193l5.234 8.628l5.234-8.628c5.383-8.129 13.525-12.193 24.278-12.193c9.292 0 16.778 3.213 22.496 9.48c5.542 6.266 8.302 14.737 8.302 25.396" />
      </g>
    </symbol>
    <symbol id="mail" viewBox="0 0 24 24">
      <g fill="none">
        <path fill="#367af2" d="M22 7.5v9.25a3.25 3.25 0 0 1-3.065 3.245L18.75 20H5.25a3.25 3.25 0 0 1-3.245-3.066L2 16.75V7.5l9.652 5.056a.75.75 0 0 0 .696 0z" />
        <path fill="url(#SVGOlPUCeKc)" d="M22 7.5v9.25a3.25 3.25 0 0 1-3.065 3.245L18.75 20H5.25a3.25 3.25 0 0 1-3.245-3.066L2 16.75V7.5l9.652 5.056a.75.75 0 0 0 .696 0z" />
        <path fill="url(#SVGVZiVneMw)" d="M22 7.5v9.25a3.25 3.25 0 0 1-3.065 3.245L18.75 20H5.25a3.25 3.25 0 0 1-3.245-3.066L2 16.75V7.5l9.652 5.056a.75.75 0 0 0 .696 0z" />
        <path fill="url(#SVGQxrkFczw)" fill-opacity="0.75" d="M22 7.5v9.25a3.25 3.25 0 0 1-3.065 3.245L18.75 20H5.25a3.25 3.25 0 0 1-3.245-3.066L2 16.75V7.5l9.652 5.056a.75.75 0 0 0 .696 0z" />
        <path fill="url(#SVGkWeZPekx)" fill-opacity="0.7" d="M22 7.5v9.25a3.25 3.25 0 0 1-3.065 3.245L18.75 20H5.25a3.25 3.25 0 0 1-3.245-3.066L2 16.75V7.5l9.652 5.056a.75.75 0 0 0 .696 0z" />
        <path fill="url(#SVGYjwTol7B)" d="m2 7.86l9.652 5.056a.75.75 0 0 0 .696 0L22 7.86v-.61A3.25 3.25 0 0 0 18.75 4H5.25A3.25 3.25 0 0 0 2 7.25z" />
        <defs>
          <linearGradient id="SVGOlPUCeKc" x1="14.539" x2="20.005" y1="9.95" y2="20.515" gradientUnits="userSpaceOnUse">
            <stop offset=".199" stop-color="#0094f0" stop-opacity="0" />
            <stop offset=".431" stop-color="#0094f0" />
          </linearGradient>
          <linearGradient id="SVGVZiVneMw" x1="9.143" x2="3.828" y1="8.816" y2="20.865" gradientUnits="userSpaceOnUse">
            <stop offset=".191" stop-color="#0094f0" stop-opacity="0" />
            <stop offset=".431" stop-color="#0094f0" />
          </linearGradient>
          <linearGradient id="SVGQxrkFczw" x1="17.273" x2="18.143" y1="14.957" y2="21.151" gradientUnits="userSpaceOnUse">
            <stop stop-color="#2764e7" stop-opacity="0" />
            <stop offset="1" stop-color="#2764e7" />
          </linearGradient>
          <linearGradient id="SVGkWeZPekx" x1="15.095" x2="16.681" y1="9.035" y2="21.643" gradientUnits="userSpaceOnUse">
            <stop offset=".533" stop-color="#ff6ce8" stop-opacity="0" />
            <stop offset="1" stop-color="#ff6ce8" />
          </linearGradient>
          <linearGradient id="SVGYjwTol7B" x1="7.942" x2="13.98" y1="1.151" y2="17.089" gradientUnits="userSpaceOnUse">
            <stop stop-color="#6ce0ff" />
            <stop offset=".462" stop-color="#29c3ff" />
            <stop offset="1" stop-color="#4894fe" />
          </linearGradient>
        </defs>
      </g>
    </symbol>
  </defs>
</svg>