<?xml version="1.0" encoding="utf-8"?>
<svg xmlns="http://www.w3.org/2000/svg">
  <defs>
    <symbol id="instagram" viewBox="0 0 24 24">
      <title>Follow on instagram</title>
      <path d="M13.028 2c1.125.003 1.696.009 2.189.023l.194.007c.224.008.445.018.712.03c1.064.05 1.79.218 2.427.465c.66.254 1.216.598 1.772 1.153a4.9 4.9 0 0 1 1.153 1.772c.247.637.415 1.363.465 2.428c.012.266.022.487.03.712l.006.194c.015.492.021 1.063.023 2.188l.001.746v1.31a79 79 0 0 1-.023 2.188l-.006.194c-.008.225-.018.446-.03.712c-.05 1.065-.22 1.79-.466 2.428a4.9 4.9 0 0 1-1.153 1.772a4.9 4.9 0 0 1-1.772 1.153c-.637.247-1.363.415-2.427.465l-.712.03l-.194.006c-.493.014-1.064.021-2.189.023l-.746.001h-1.309a78 78 0 0 1-2.189-.023l-.194-.006a63 63 0 0 1-.712-.031c-1.064-.05-1.79-.218-2.428-.465a4.9 4.9 0 0 1-1.771-1.153a4.9 4.9 0 0 1-1.154-1.772c-.247-.637-.415-1.363-.465-2.428l-.03-.712l-.005-.194A79 79 0 0 1 2 13.028v-2.056a79 79 0 0 1 .022-2.188l.007-.194c.008-.225.018-.446.03-.712c.05-1.065.218-1.79.465-2.428A4.9 4.9 0 0 1 3.68 3.678a4.9 4.9 0 0 1 1.77-1.153c.638-.247 1.363-.415 2.428-.465c.266-.012.488-.022.712-.03l.194-.006a79 79 0 0 1 2.188-.023zM12 7a5 5 0 1 0 0 10a5 5 0 0 0 0-10m0 2a3 3 0 1 1 .001 6a3 3 0 0 1 0-6m5.25-3.5a1.25 1.25 0 0 0 0 2.5a1.25 1.25 0 0 0 0-2.5" />
    </symbol>
    <symbol id="mail" viewBox="0 0 24 24">
      <title>Schreib uns!</title>
      <g>
        <path d="M22 7.535V17a3 3 0 0 1-2.824 2.995L19 20H5a3 3 0 0 1-2.995-2.824L2 17V7.535l9.445 6.297l.116.066a1 1 0 0 0 .878 0l.116-.066z" />
        <path d="M19 4c1.08 0 2.027.57 2.555 1.427L12 11.797l-9.555-6.37a3 3 0 0 1 2.354-1.42L5 4z" />
      </g>
    </symbol>
    <symbol id="close" viewBox="0 0 24 24">
      <g fill="none" fill-rule="evenodd">
        <path d="m12.593 23.258l-.011.002l-.071.035l-.02.004l-.014-.004l-.071-.035q-.016-.005-.024.005l-.004.01l-.017.428l.005.02l.01.013l.104.074l.015.004l.012-.004l.104-.074l.012-.016l.004-.017l-.017-.427q-.004-.016-.017-.018m.265-.113l-.013.002l-.185.093l-.01.01l-.003.011l.018.43l.005.012l.008.007l.201.093q.019.005.029-.008l.004-.014l-.034-.614q-.005-.018-.02-.022m-.715.002a.02.02 0 0 0-.027.006l-.006.014l-.034.614q.001.018.017.024l.015-.002l.201-.093l.01-.008l.004-.011l.017-.43l-.003-.012l-.01-.01z" />
        <path fill="currentColor" d="m12 14.122l5.303 5.303a1.5 1.5 0 0 0 2.122-2.122L14.12 12l5.304-5.303a1.5 1.5 0 1 0-2.122-2.121L12 9.879L6.697 4.576a1.5 1.5 0 1 0-2.122 2.12L9.88 12l-5.304 5.304a1.5 1.5 0 1 0 2.122 2.12z" />
      </g>
</symbol>
  </defs>
</svg>